<?xml version="1.0" encoding="utf-8"?>
<!-- Generator: Adobe Illustrator 16.0.0, SVG Export Plug-In . SVG Version: 6.00 Build 0)  -->
<!DOCTYPE svg PUBLIC "-//W3C//DTD SVG 1.1//EN" "http://www.w3.org/Graphics/SVG/1.1/DTD/svg11.dtd">
<svg version="1.1" xmlns="http://www.w3.org/2000/svg" xmlns:xlink="http://www.w3.org/1999/xlink" x="0px" y="0px" width="500px"
	 height="500px" viewBox="0 0 500 500" enable-background="new 0 0 500 500" xml:space="preserve">
<g id="BACKGROUND">
	<g>
		<g>
			<g opacity="0.41">
				<g>
					<g>
						<path fill="#E1E2FE" d="M479.208,298.478c0.428-7.37,0.236-14.775-0.595-22.107c-3.903-34.45-21.577-66.935-47.59-89.856
							c-9.28-8.177-19.84-15.502-25.88-26.297c-10.171-18.178-9.4-39.069-22.023-57.018c-12.638-17.969-31.055-31.982-51.824-39.179
							c-61.926-21.458-148.625,13.48-140.818,88.091c0.028,0.268,0.058,0.657,0.091,1.149c1.038,15.499-11.126,28.529-26.607,28.896
							c-57.135,1.356-106.316,45.407-116.84,101.206c-6.768,35.886,4.314,75.219,30.564,100.604
							c19.594,18.95,45.885,29.36,72.188,36.514c52.739,14.343,108.237,17.35,162.615,11.865
							c50.901-5.134,104.594-19.768,137.514-58.929C467.563,352.527,477.624,325.737,479.208,298.478z"/>
					</g>
				</g>
			</g>
			<g opacity="0.31">
				<circle fill="#E1E2FE" cx="217.515" cy="45.386" r="13.293"/>
			</g>
			<g opacity="0.31">
				<circle fill="#E1E2FE" cx="397.138" cy="37.28" r="6.859"/>
			</g>
			<g opacity="0.31">
				<circle fill="#E1E2FE" cx="155.016" cy="75.145" r="9.191"/>
			</g>
			<g opacity="0.31">
				<circle fill="#E1E2FE" cx="49.034" cy="408.476" r="20.927"/>
			</g>
		</g>
	</g>
	<g>
		<g>
			<path opacity="0.47" fill="#ECF1F7" d="M473.514,81.951c5.966-11.62,1.381-25.876-10.239-31.842s-33.95-5.526-39.915,6.094
				c-5.966,11.621,11.918,21.593,19.211,32.43C452.741,103.747,467.548,93.571,473.514,81.951z"/>
			<path opacity="0.47" fill="#E1E2FE" d="M422.702,439.102c8.408,5.429,19.624,3.013,25.052-5.395s6.783-25.465-1.624-30.893
				s-17.364,7.451-26.179,12.191C407.659,421.615,414.295,433.674,422.702,439.102z"/>
			<path opacity="0.47" fill="#E1E2FE" d="M79.536,28.634c-9.248-8.588-23.706-8.053-32.294,1.195S33.223,59.96,42.47,68.548
				s23.201-5.438,35.187-9.386C94.375,53.655,88.784,37.222,79.536,28.634z"/>
		</g>
		<g>
			<path opacity="0.47" fill="#E1E2FE" d="M28.561,128.462c-8.244,17.898-10.496,38.532-6.54,57.822
				c4.65,22.678,18.77,40.101,13.87,64.294c-2.984,14.736-3.731,28.387-5.244,42.967c-3.107,29.94,16.333,56.321,40.448,70.567
				c19.586,11.57,42.55,15.911,65.069,15.602c20.268-0.277,40.5-4.021,60.14-9.053c18.927-4.85,37.432-11.24,57.271-9.224
				c16.499,1.676,31.359,8.81,46.726,14.128c36.686,12.699,81.124,14.49,114.671-4.841c21.528-12.407,36.598-32.555,43.281-54.218
				c5.341-17.312,6.019-33.501,2.016-51.175c-4.111-18.147-11.051-36.44-8.896-55.348c1.502-13.176,7.528-25.893,6.425-39.108
				c-0.734-8.78-4.601-17.019-9.328-24.455c-17.262-27.149-46.166-45.325-76.739-55.341c-28.773-9.425-58.447-16.25-88.402-13.983
				c-61.937,4.688-74.563-5.149-137.859-18.688c-40.863-8.74-86.572,22.416-110.484,58.508
				C32.545,120.6,30.404,124.463,28.561,128.462z"/>
			<g>
				<path opacity="0.81" fill="#E1E2FE" d="M71.173,156.355c-1.271,14.292,3.55,29.02-0.479,43.174
					c-4.824,16.946-18.788,29.638-24.479,46.275c-8.411,24.583-8.007,52.131,2.207,76.086c4.923,11.546,12.114,22.274,21.935,29.695
					c15.139,11.438,34.975,13.947,53.63,12.496c27.764-2.159,57.061-14.179,84.975-10.9c15.404,1.809,20.107,18.481,28.063,29.479
					c8.998,12.438,21.252,22.209,34.799,28.712c24.952,11.979,54.898,13.112,80.4,2.251c27.227-11.596,50.957-39.913,49.397-71.938
					c-0.722-14.815-6.652-29.53-3.906-44.088c3.445-18.269,17.211-34.917,27.186-49.802c11.017-16.439,17.686-36.043,18.993-56.043
					c0.015-0.227,0.029-0.454,0.043-0.68c2.045-34.503-19.718-65.971-52.551-76.769c0,0-69.859-22.976-69.862-22.976
					C250.638,68.015,179.813,68.786,114.636,103c-14.104,7.404-37.069,29.463-41.799,44.674
					C71.945,150.544,71.432,153.441,71.173,156.355z"/>
			</g>
		</g>
	</g>
	<circle opacity="0.58" fill="#3E479B" cx="467.651" cy="381.579" r="4.5"/>
	<circle opacity="0.58" fill="#3E479B" cx="259.774" cy="30.861" r="4.5"/>
	<circle opacity="0.58" fill="#3E479B" cx="97.208" cy="423.078" r="4.5"/>
	<circle opacity="0.58" fill="#EF929C" cx="381.238" cy="442.001" r="3.5"/>
	<circle opacity="0.58" fill="#3E479B" cx="77.342" cy="107.5" r="1.5"/>
	<circle opacity="0.58" fill="#EF929C" cx="391.578" cy="61.627" r="5.404"/>
	<circle opacity="0.58" fill="#EF929C" cx="106" cy="37.481" r="2.119"/>
	<circle opacity="0.58" fill="#3E479B" cx="444.069" cy="28.644" r="1.801"/>
	<circle opacity="0.58" fill="#3E479B" cx="63.017" cy="458.269" r="1.801"/>
</g>
<g id="OBJECTS">
	<g>
		<g opacity="0.66">
			<g>
				<g>
					<g>
						<path fill="#FFFFFF" d="M194.413,189.753l-7.958-0.607c-0.609-5.993-2.512-11.642-5.449-16.638l6.057-5.198
							c3.068-2.633,3.421-7.254,0.788-10.322s-7.254-3.421-10.322-0.788l-6.057,5.198c-4.493-3.662-9.787-6.4-15.618-7.912
							l0.607-7.958c0.308-4.031-2.71-7.548-6.741-7.855l0,0c-4.031-0.308-7.548,2.71-7.856,6.741l-0.607,7.958
							c-5.993,0.609-11.642,2.512-16.638,5.449l-5.198-6.057c-2.633-3.068-7.254-3.421-10.322-0.788s-3.42,7.254-0.788,10.322
							l5.198,6.057c-3.662,4.493-6.4,9.787-7.912,15.618l-7.958-0.607c-4.031-0.308-7.548,2.71-7.855,6.741l0,0
							c-0.308,4.031,2.71,7.548,6.741,7.856l7.958,0.607c0.609,5.993,2.512,11.642,5.449,16.638l-6.057,5.197
							c-3.068,2.633-3.421,7.254-0.788,10.322c2.633,3.068,7.254,3.42,10.322,0.788l6.057-5.197c4.493,3.662,9.787,6.4,15.618,7.912
							l-0.607,7.958c-0.308,4.031,2.71,7.548,6.741,7.856l0,0c4.031,0.308,7.548-2.71,7.856-6.741l0.607-7.958
							c5.993-0.609,11.642-2.512,16.638-5.449l5.198,6.057c2.632,3.068,7.254,3.42,10.322,0.788
							c3.068-2.633,3.42-7.254,0.788-10.322l-5.197-6.057c3.662-4.492,6.4-9.787,7.912-15.618l7.958,0.607
							c4.031,0.308,7.548-2.71,7.856-6.741l0,0C201.461,193.578,198.443,190.061,194.413,189.753z M143.198,223.092
							c-16.422-1.254-28.719-15.583-27.465-32.005c1.253-16.422,15.583-28.719,32.005-27.465
							c16.422,1.254,28.719,15.583,27.465,32.005C173.95,212.05,159.621,224.346,143.198,223.092z"/>
					</g>
				</g>
				<g>
					<g>
						<path fill="#FFFFFF" d="M364.446,414.167c-0.964,0-1.921-0.231-2.802-0.688c-1.445-0.75-2.513-2.019-3.005-3.572l-1.43-4.515
							c-3.695,0.377-7.366,0.06-10.938-0.943l-2.182,4.203c-1.55,2.984-5.239,4.152-8.224,2.604
							c-1.446-0.75-2.513-2.019-3.005-3.572c-0.492-1.553-0.35-3.204,0.401-4.65l2.181-4.203c-2.876-2.344-5.248-5.165-7.067-8.402
							l-4.515,1.43c-3.207,1.016-6.641-0.768-7.655-3.974c-0.492-1.553-0.35-3.204,0.4-4.65c0.751-1.446,2.02-2.514,3.572-3.005
							l4.515-1.43c-0.376-3.694-0.06-7.366,0.943-10.939l-4.203-2.182c-1.446-0.75-2.513-2.019-3.005-3.572
							c-0.492-1.553-0.35-3.204,0.401-4.65c0.75-1.445,2.019-2.513,3.572-3.005c1.552-0.491,3.204-0.35,4.65,0.4l4.203,2.182
							c2.344-2.875,5.165-5.248,8.402-7.068l-1.43-4.514c-1.015-3.206,0.768-6.641,3.974-7.656c1.551-0.492,3.204-0.349,4.65,0.401
							c1.446,0.751,2.514,2.02,3.005,3.572l1.43,4.515c3.695-0.378,7.366-0.06,10.939,0.943l2.182-4.204
							c1.549-2.984,5.235-4.153,8.224-2.604c2.983,1.55,4.151,5.238,2.604,8.224l-2.182,4.202c2.876,2.345,5.249,5.166,7.068,8.403
							l4.515-1.43c1.554-0.491,3.204-0.35,4.65,0.4c1.446,0.751,2.513,2.02,3.005,3.573c1.015,3.206-0.768,6.64-3.974,7.655
							l-4.515,1.43c0.376,3.694,0.06,7.366-0.943,10.939l4.204,2.181c2.984,1.55,4.152,5.239,2.604,8.224
							c-0.75,1.446-2.019,2.514-3.572,3.005c-1.552,0.492-3.203,0.349-4.651-0.401l-4.202-2.181
							c-2.346,2.876-5.166,5.248-8.403,7.067l1.43,4.515c0.492,1.553,0.35,3.205-0.4,4.65c-0.751,1.446-2.02,2.514-3.573,3.005
							C365.688,414.071,365.065,414.167,364.446,414.167z M358.615,403.204l1.931,6.099c0.331,1.044,1.048,1.896,2.02,2.4
							c0.972,0.505,2.081,0.6,3.126,0.27c1.044-0.331,1.896-1.048,2.401-2.02s0.6-2.082,0.27-3.126l-1.932-6.098l0.74-0.39
							c3.539-1.862,6.569-4.411,9.008-7.576l0.51-0.662l5.678,2.945c0.972,0.505,2.081,0.601,3.126,0.271
							c1.044-0.331,1.896-1.048,2.4-2.021c1.041-2.005,0.256-4.484-1.75-5.526l-5.678-2.946l0.248-0.799
							c1.186-3.815,1.525-7.761,1.012-11.726l-0.108-0.83l6.099-1.931c2.154-0.683,3.353-2.991,2.671-5.146
							c-0.331-1.044-1.048-1.896-2.021-2.401c-0.97-0.505-2.081-0.6-3.125-0.27l-6.098,1.932l-0.39-0.74
							c-1.862-3.539-4.411-6.57-7.577-9.008l-0.663-0.51l2.947-5.678c1.041-2.006,0.256-4.485-1.75-5.526
							c-2.009-1.044-4.486-0.256-5.526,1.75l-2.947,5.678l-0.799-0.248c-3.815-1.186-7.76-1.523-11.726-1.012l-0.83,0.108
							l-1.931-6.099c-0.33-1.044-1.048-1.896-2.02-2.4c-0.972-0.505-2.079-0.601-3.126-0.271c-2.154,0.683-3.353,2.991-2.671,5.146
							l1.932,6.097l-0.74,0.39c-3.539,1.863-6.569,4.412-9.007,7.577l-0.51,0.663l-5.679-2.947c-0.971-0.505-2.081-0.6-3.125-0.27
							c-1.044,0.331-1.896,1.048-2.4,2.021c-0.505,0.972-0.601,2.081-0.271,3.125c0.331,1.044,1.048,1.896,2.021,2.4l5.677,2.947
							l-0.248,0.799c-1.186,3.815-1.525,7.761-1.012,11.726l0.108,0.83l-6.099,1.931c-1.044,0.33-1.896,1.048-2.4,2.02
							c-0.505,0.972-0.6,2.082-0.27,3.126c0.683,2.154,2.991,3.354,5.146,2.671l6.098-1.932l0.39,0.74
							c1.862,3.539,4.411,6.569,7.576,9.007l0.662,0.51l-2.945,5.679c-0.505,0.972-0.601,2.081-0.271,3.125
							c0.331,1.044,1.048,1.896,2.021,2.4c2.006,1.042,4.485,0.255,5.526-1.75l2.947-5.677l0.799,0.248
							c3.815,1.186,7.763,1.523,11.725,1.012L358.615,403.204z M354.224,397.621c-3.444,0-6.86-0.826-10.006-2.458
							c-5.162-2.68-8.972-7.208-10.728-12.753s-1.247-11.441,1.432-16.604c2.68-5.162,7.208-8.972,12.753-10.728
							c5.546-1.757,11.44-1.247,16.604,1.432c5.162,2.68,8.973,7.209,10.729,12.753c1.756,5.545,1.247,11.442-1.433,16.604
							s-7.208,8.972-12.753,10.728C358.655,397.281,356.434,397.621,354.224,397.621z M354.271,356.053
							c-2.008,0-4.024,0.309-5.992,0.932c-5.036,1.595-9.149,5.055-11.582,9.743c-2.434,4.688-2.896,10.043-1.301,15.078
							c1.595,5.036,5.055,9.149,9.743,11.582c4.689,2.435,10.046,2.895,15.078,1.301c5.036-1.595,9.149-5.055,11.582-9.743
							c2.434-4.688,2.896-10.043,1.301-15.078c-1.595-5.036-5.055-9.149-9.743-11.582
							C360.502,356.803,357.398,356.053,354.271,356.053z"/>
					</g>
				</g>
				<g>
					<g>
						<path fill="#FFFFFF" d="M416.959,376.837c-0.374,0-0.753-0.027-1.134-0.083c-4.285-0.623-7.266-4.616-6.643-8.9l0.955-6.576
							c-4.841-1.728-9.221-4.335-13.042-7.763l-5.325,3.974c-1.682,1.255-3.749,1.78-5.825,1.478
							c-2.076-0.301-3.91-1.393-5.165-3.074c-2.59-3.471-1.874-8.401,1.597-10.991l5.325-3.974c-2.2-4.64-3.454-9.58-3.732-14.711
							l-6.575-0.956c-4.285-0.622-7.266-4.615-6.643-8.9c0.301-2.076,1.393-3.91,3.074-5.165c1.682-1.254,3.75-1.778,5.825-1.478
							l6.577,0.955c1.727-4.841,4.334-9.221,7.763-13.042l-3.975-5.324c-1.254-1.682-1.779-3.751-1.478-5.826
							c0.302-2.076,1.394-3.91,3.075-5.165c1.681-1.255,3.749-1.779,5.825-1.479c2.076,0.302,3.91,1.394,5.165,3.075l3.975,5.324
							c4.639-2.199,9.58-3.453,14.71-3.731l0.956-6.575c0.623-4.286,4.627-7.269,8.9-6.643c2.076,0.301,3.91,1.393,5.165,3.074
							c1.255,1.681,1.779,3.75,1.478,5.825l-0.955,6.577c4.841,1.727,9.221,4.334,13.042,7.763l5.325-3.975
							c3.468-2.589,8.399-1.875,10.991,1.598c2.59,3.47,1.873,8.4-1.598,10.99l-5.324,3.975c2.199,4.638,3.453,9.578,3.731,14.71
							l6.576,0.956c4.285,0.623,7.265,4.616,6.643,8.9c-0.623,4.286-4.625,7.27-8.9,6.643l-6.576-0.955
							c-1.728,4.842-4.335,9.222-7.763,13.042l3.974,5.325c2.59,3.469,1.874,8.399-1.596,10.991
							c-1.682,1.254-3.751,1.778-5.827,1.478c-2.076-0.302-3.91-1.394-5.165-3.075l-3.974-5.324
							c-4.639,2.199-9.579,3.453-14.711,3.731l-0.956,6.576C424.159,374.016,420.794,376.836,416.959,376.837z M397.233,350.916
							l0.611,0.571c3.956,3.702,8.572,6.449,13.718,8.167l0.793,0.265l-1.194,8.222c-0.464,3.193,1.758,6.17,4.951,6.635
							c3.194,0.463,6.171-1.757,6.635-4.951l1.194-8.224l0.836-0.027c5.422-0.182,10.629-1.503,15.475-3.926l0.748-0.374l4.97,6.659
							c0.935,1.253,2.302,2.066,3.85,2.291c1.549,0.228,3.089-0.166,4.343-1.102c2.586-1.931,3.12-5.605,1.188-8.191l-4.969-6.659
							l0.571-0.611c3.701-3.955,6.449-8.57,8.167-13.718l0.265-0.793l8.222,1.194c3.198,0.461,6.169-1.758,6.635-4.951
							c0.463-3.193-1.758-6.17-4.951-6.635l-8.224-1.194l-0.027-0.836c-0.182-5.423-1.503-10.629-3.926-15.474l-0.374-0.748
							l6.658-4.971c2.587-1.93,3.121-5.604,1.19-8.191c-0.935-1.253-2.302-2.066-3.85-2.291c-1.547-0.227-3.089,0.167-4.343,1.102
							h0.001l-6.659,4.97l-0.611-0.571c-3.956-3.703-8.572-6.45-13.718-8.167l-0.793-0.265l1.194-8.223
							c0.225-1.547-0.167-3.089-1.102-4.342c-0.936-1.253-2.303-2.067-3.85-2.292c-3.203-0.466-6.17,1.758-6.635,4.951l-1.194,8.223
							l-0.836,0.027c-5.421,0.182-10.627,1.503-15.474,3.926l-0.748,0.374l-4.971-6.658c-0.935-1.254-2.302-2.067-3.849-2.292
							c-1.546-0.223-3.089,0.167-4.342,1.103c-1.254,0.935-2.067,2.302-2.292,3.849c-0.225,1.548,0.166,3.09,1.102,4.343l4.97,6.658
							l-0.571,0.611c-3.703,3.956-6.45,8.572-8.167,13.718l-0.265,0.793l-8.223-1.194c-1.545-0.222-3.089,0.168-4.342,1.103
							s-2.067,2.302-2.292,3.849c-0.464,3.194,1.758,6.171,4.951,6.635l8.223,1.194l0.027,0.836
							c0.182,5.421,1.503,10.627,3.927,15.475l0.374,0.748l-6.66,4.97c-1.252,0.935-2.066,2.302-2.291,3.85
							c-0.225,1.547,0.167,3.089,1.103,4.343c0.935,1.252,2.302,2.066,3.849,2.291c1.546,0.224,3.089-0.167,4.343-1.103
							L397.233,350.916z M423.521,352.929c-8.824,0-17.542-4.013-23.214-11.61c-9.537-12.781-6.899-30.938,5.881-40.477
							c6.191-4.619,13.813-6.555,21.454-5.442c7.646,1.11,14.4,5.132,19.021,11.323c4.62,6.19,6.553,13.81,5.442,21.454
							c-1.11,7.646-5.131,14.4-11.322,19.021l0,0C435.603,351.063,429.537,352.929,423.521,352.929z M423.429,297.094
							c-5.761,0-11.345,1.844-16.045,5.352c-11.896,8.878-14.351,25.78-5.473,37.677c8.879,11.896,25.779,14.348,37.677,5.472l0,0
							c5.762-4.301,9.505-10.588,10.538-17.704c1.034-7.116-0.766-14.209-5.066-19.972s-10.588-9.506-17.704-10.539
							C426.043,297.188,424.731,297.094,423.429,297.094z M440.186,346.396h0.01H440.186z"/>
					</g>
				</g>
			</g>
		</g>
		<g>
			<g opacity="0.81">
				<path fill="#FFFFFF" d="M287.661,380.863h-20.542c-0.553,0-1-0.447-1-1s0.447-1,1-1h20.542c0.553,0,1,0.447,1,1
					S288.214,380.863,287.661,380.863z"/>
				<path fill="#FFFFFF" d="M287.661,402.217h-20.542c-0.553,0-1-0.447-1-1s0.447-1,1-1h20.542c0.553,0,1,0.447,1,1
					S288.214,402.217,287.661,402.217z"/>
				<g>
					<g>
						<g>
							<path fill="#FFFFFF" d="M303.168,423.781h-126.87c-1.495,0-2.711-1.216-2.711-2.711v-65.849c0-1.495,1.216-2.712,2.711-2.712
								h126.87c1.495,0,2.712,1.217,2.712,2.712v65.849C305.88,422.565,304.663,423.781,303.168,423.781z M176.298,354.51
								c-0.392,0-0.711,0.319-0.711,0.712v65.849c0,0.392,0.319,0.711,0.711,0.711h126.87c0.393,0,0.712-0.319,0.712-0.711v-65.849
								c0-0.393-0.319-0.712-0.712-0.712H176.298z"/>
							<path opacity="0.66" fill="#FFFFFF" d="M303.168,423.781h-126.87c-1.495,0-2.711-1.216-2.711-2.711v-65.849
								c0-1.495,1.216-2.712,2.711-2.712h126.87c1.495,0,2.712,1.217,2.712,2.712v65.849
								C305.88,422.565,304.663,423.781,303.168,423.781z M176.298,354.51c-0.392,0-0.711,0.319-0.711,0.712v65.849
								c0,0.392,0.319,0.711,0.711,0.711h126.87c0.393,0,0.712-0.319,0.712-0.711v-65.849c0-0.393-0.319-0.712-0.712-0.712H176.298z
								"/>
						</g>
					</g>
					<path fill="#FFFFFF" d="M287.661,370.501h-97.889c-0.552,0-1-0.447-1-1s0.448-1,1-1h97.889c0.553,0,1,0.447,1,1
						S288.214,370.501,287.661,370.501z"/>
					<path fill="#FFFFFF" d="M287.661,391.227h-97.889c-0.552,0-1-0.447-1-1s0.448-1,1-1h97.889c0.553,0,1,0.447,1,1
						S288.214,391.227,287.661,391.227z"/>
					<path fill="#FFFFFF" d="M242.548,380.863h-52.776c-0.552,0-1-0.447-1-1s0.448-1,1-1h52.776c0.552,0,1,0.447,1,1
						S243.1,380.863,242.548,380.863z"/>
					<path fill="#FFFFFF" d="M242.548,402.217h-52.776c-0.552,0-1-0.447-1-1s0.448-1,1-1h52.776c0.552,0,1,0.447,1,1
						S243.1,402.217,242.548,402.217z"/>
					<path fill="#FFFFFF" d="M225.364,412.109h-35.592c-0.552,0-1-0.447-1-1s0.448-1,1-1h35.592c0.552,0,1,0.447,1,1
						S225.916,412.109,225.364,412.109z"/>
				</g>
			</g>
			<g opacity="0.81">
				<path fill="#FFFFFF" d="M91.118,316.838H68.03c-0.552,0-1-0.447-1-1s0.448-1,1-1h23.088c0.552,0,1,0.447,1,1
					S91.67,316.838,91.118,316.838z"/>
				<path fill="#FFFFFF" d="M91.118,292.838H68.03c-0.552,0-1-0.447-1-1s0.448-1,1-1h23.088c0.552,0,1,0.447,1,1
					S91.67,292.838,91.118,292.838z"/>
				<g>
					<g>
						<g>
							<path fill="#FFFFFF" d="M193.407,346.458H50.389c-1.495,0-2.711-1.217-2.711-2.712v-74.434c0-1.495,1.216-2.712,2.711-2.712
								h143.018c1.495,0,2.711,1.217,2.711,2.712v74.434C196.118,345.241,194.902,346.458,193.407,346.458z M50.389,268.601
								c-0.392,0-0.711,0.319-0.711,0.712v74.434c0,0.393,0.319,0.712,0.711,0.712h143.018c0.392,0,0.711-0.319,0.711-0.712v-74.434
								c0-0.393-0.319-0.712-0.711-0.712H50.389z"/>
							<path opacity="0.66" fill="#FFFFFF" d="M193.407,346.458H50.389c-1.495,0-2.711-1.217-2.711-2.712v-74.434
								c0-1.495,1.216-2.712,2.711-2.712h143.018c1.495,0,2.711,1.217,2.711,2.712v74.434
								C196.118,345.241,194.902,346.458,193.407,346.458z M50.389,268.601c-0.392,0-0.711,0.319-0.711,0.712v74.434
								c0,0.393,0.319,0.712,0.711,0.712h143.018c0.392,0,0.711-0.319,0.711-0.712v-74.434c0-0.393-0.319-0.712-0.711-0.712H50.389z
								"/>
						</g>
					</g>
					<path fill="#FFFFFF" d="M178.051,328.484H68.03c-0.552,0-1-0.447-1-1s0.448-1,1-1h110.021c0.552,0,1,0.447,1,1
						S178.603,328.484,178.051,328.484z"/>
					<path fill="#FFFFFF" d="M178.051,305.19H68.03c-0.552,0-1-0.447-1-1s0.448-1,1-1h110.021c0.552,0,1,0.447,1,1
						S178.603,305.19,178.051,305.19z"/>
					<path fill="#FFFFFF" d="M178.051,316.838h-59.316c-0.552,0-1-0.447-1-1s0.448-1,1-1h59.316c0.552,0,1,0.447,1,1
						S178.603,316.838,178.051,316.838z"/>
					<path fill="#FFFFFF" d="M178.051,292.838h-59.316c-0.552,0-1-0.447-1-1s0.448-1,1-1h59.316c0.552,0,1,0.447,1,1
						S178.603,292.838,178.051,292.838z"/>
					<path fill="#FFFFFF" d="M178.051,281.72h-40.003c-0.552,0-1-0.447-1-1s0.448-1,1-1h40.003c0.552,0,1,0.447,1,1
						S178.603,281.72,178.051,281.72z"/>
				</g>
			</g>
		</g>
	</g>
	<g>
		<g>
			<path opacity="0.14" fill="#3E479B" d="M359.985,386.867l-109.419-64.873c-0.879-0.521-1.17-1.657-0.648-2.537l88.33-148.982
				c0.521-0.879,1.656-1.17,2.536-0.648l109.419,64.873c0.88,0.521,1.17,1.657,0.648,2.537l-88.329,148.983
				C362.001,387.098,360.865,387.388,359.985,386.867z"/>
			<path fill="#F7A9B4" d="M357.144,380.897l-109.419-64.873c-0.879-0.521-1.17-1.657-0.648-2.537l88.329-148.982
				c0.521-0.879,1.657-1.169,2.537-0.648l109.419,64.873c0.88,0.521,1.17,1.657,0.648,2.537l-88.329,148.983
				C359.159,381.128,358.023,381.419,357.144,380.897z"/>
		</g>
		<g>
			<path opacity="0.14" fill="#3E479B" d="M388.574,379.072l-125.098-23.06c-1.005-0.186-1.67-1.15-1.484-2.156l31.396-170.33
				c0.186-1.005,1.151-1.67,2.156-1.485l125.098,23.059c1.005,0.186,1.67,1.151,1.484,2.156l-31.396,170.33
				C390.545,378.593,389.58,379.258,388.574,379.072z"/>
			
				<rect x="273.932" y="187.315" transform="matrix(0.9834 0.1813 -0.1813 0.9834 55.613 -56.954)" fill="#FFFFFF" width="130.907" height="176.901"/>
			<path opacity="0.39" fill="#F7A9B4" d="M385.9,374.281l-125.098-23.06c-1.005-0.186-1.67-1.15-1.484-2.156l31.396-170.33
				c0.186-1.005,1.15-1.67,2.156-1.485l125.098,23.059c1.005,0.186,1.67,1.151,1.484,2.156l-31.396,170.33
				C387.871,373.802,386.905,374.467,385.9,374.281z"/>
			<path fill="#FFFFFF" d="M400.307,221.139c-0.06,0-0.121-0.005-0.183-0.017l-31.314-5.772c-0.543-0.1-0.902-0.622-0.802-1.165
				s0.615-0.901,1.165-0.802l31.314,5.772c0.543,0.1,0.902,0.622,0.802,1.165C401.2,220.802,400.78,221.139,400.307,221.139z"/>
			<path fill="#FFFFFF" d="M398.463,231.143c-0.06,0-0.121-0.005-0.183-0.017l-31.314-5.772c-0.543-0.1-0.902-0.622-0.802-1.165
				c0.101-0.542,0.616-0.902,1.165-0.802l31.314,5.772c0.543,0.1,0.902,0.622,0.802,1.165
				C399.356,230.806,398.937,231.143,398.463,231.143z"/>
			<path fill="#FFFFFF" d="M396.459,242.016c-0.06,0-0.121-0.005-0.183-0.017l-31.314-5.772c-0.543-0.1-0.902-0.622-0.802-1.165
				c0.1-0.542,0.614-0.901,1.165-0.802l31.314,5.772c0.543,0.1,0.902,0.622,0.802,1.165
				C397.353,241.679,396.932,242.016,396.459,242.016z"/>
			<g>
				<path opacity="0.14" fill="#3E479B" d="M348.011,251.261l-53.652-9.89c-1.089-0.201-1.809-1.246-1.608-2.334l10.636-57.7
					c0.201-1.089,1.246-1.809,2.335-1.608l53.652,9.89c1.089,0.201,1.809,1.246,1.607,2.334l-10.636,57.7
					C350.145,250.742,349.099,251.462,348.011,251.261z"/>
				<path fill="#599AF2" d="M346.039,247.912l-51.148-9.428c-1.089-0.201-1.809-1.246-1.608-2.334l10.07-54.628
					c0.2-1.089,1.245-1.809,2.334-1.608l51.148,9.428c1.089,0.201,1.809,1.246,1.608,2.334l-10.07,54.628
					C348.173,247.392,347.128,248.112,346.039,247.912z"/>
				<path opacity="0.07" fill="#ECF1F7" d="M357.493,196.831l-55.091-10.155l0.961-5.213c0.194-1.057,1.209-1.755,2.266-1.561
					l51.333,9.462c1.019,0.188,1.692,1.166,1.505,2.184L357.493,196.831z"/>
				<path fill="#3E479B" d="M317.815,213.845c-0.388,0-0.781-0.035-1.176-0.108l-0.763-0.141c-4.05-0.747-6.738-4.65-5.992-8.701
					l1.924-10.438c0.15-0.815,0.938-1.355,1.747-1.203c0.815,0.15,1.354,0.932,1.204,1.747l-1.924,10.438
					c-0.447,2.424,1.161,4.76,3.585,5.207l0.763,0.141c1.885,0.35,3.699-0.903,4.046-2.788l4.871-26.422
					c0.358-1.944-0.932-3.818-2.876-4.177l-1.305-0.24c-2.072-0.381-4.054,0.99-4.436,3.054l-0.119,0.651
					c-0.151,0.816-0.942,1.354-1.747,1.204c-0.814-0.15-1.354-0.932-1.204-1.747l0.12-0.652c0.683-3.692,4.24-6.142,7.929-5.46
					l1.305,0.24c3.571,0.658,5.941,4.099,5.284,7.67l-4.871,26.422C323.605,211.659,320.876,213.845,317.815,213.845z"/>
				<path fill="#FFFFFF" d="M323.022,191.658c-0.03,0-0.061-0.002-0.092-0.008l-19.989-3.685c-0.271-0.05-0.451-0.311-0.401-0.583
					c0.051-0.272,0.308-0.455,0.583-0.401l19.989,3.685c0.271,0.05,0.451,0.311,0.401,0.583
					C323.469,191.49,323.259,191.658,323.022,191.658z"/>
			</g>
			<g>
				<path fill="#FFFFFF" d="M384.145,294.995c-0.06,0-0.121-0.005-0.183-0.017l-95.684-17.638c-0.543-0.1-0.902-0.621-0.802-1.165
					c0.101-0.542,0.614-0.904,1.165-0.802l95.684,17.638c0.543,0.1,0.902,0.621,0.802,1.165
					C385.038,294.658,384.618,294.995,384.145,294.995z"/>
				<path fill="#FFFFFF" d="M377.304,332.108c-0.06,0-0.121-0.005-0.183-0.017l-95.685-17.637c-0.543-0.1-0.902-0.621-0.802-1.165
					c0.1-0.542,0.615-0.906,1.165-0.802l95.685,17.637c0.543,0.1,0.902,0.621,0.802,1.165
					C378.197,331.771,377.776,332.108,377.304,332.108z"/>
				<path fill="#FFFFFF" d="M330.272,304.252c-0.06,0-0.121-0.005-0.183-0.017l-45.232-8.338c-0.543-0.1-0.902-0.621-0.802-1.165
					c0.101-0.542,0.615-0.907,1.165-0.802l45.232,8.338c0.543,0.1,0.902,0.621,0.802,1.165
					C331.166,303.915,330.745,304.252,330.272,304.252z"/>
				<path fill="#FFFFFF" d="M336.505,270.44c-0.06,0-0.121-0.005-0.183-0.017l-45.232-8.337c-0.543-0.101-0.902-0.622-0.802-1.165
					c0.101-0.542,0.616-0.9,1.165-0.802l45.232,8.337c0.543,0.1,0.902,0.621,0.802,1.165
					C337.398,270.104,336.979,270.44,336.505,270.44z"/>
				<path fill="#FFFFFF" d="M380.751,313.407c-0.06,0-0.121-0.005-0.183-0.017l-43.097-7.944c-0.543-0.1-0.902-0.621-0.802-1.165
					c0.1-0.542,0.614-0.904,1.165-0.802l43.097,7.944c0.543,0.1,0.902,0.621,0.802,1.165
					C381.645,313.07,381.225,313.407,380.751,313.407z"/>
			</g>
		</g>
		<g>
			<path fill="#599AF2" d="M370.619,116.853h-53.181c-1.841,0-3.333-1.492-3.333-3.333V95.733c0-1.841,1.492-3.333,3.333-3.333
				h53.181c1.841,0,3.333,1.492,3.333,3.333v17.787C373.952,115.361,372.46,116.853,370.619,116.853z"/>
			<path fill="#F7A9B4" d="M410.682,143.507h-74.39c-1.841,0-3.333-1.492-3.333-3.333v-26.453c0-1.841,1.492-3.333,3.333-3.333
				h74.39c1.841,0,3.333,1.492,3.333,3.333v26.453C414.015,142.015,412.522,143.507,410.682,143.507z"/>
			<g>
				<g>
					<g>
						<path fill="#FFFFFF" d="M352.769,136.506h82.375c2.489,0,4.524,2.036,4.524,4.525v25.235c0,2.488-2.035,4.524-4.524,4.524
							h-82.375c-2.489,0-4.525-2.036-4.525-4.524v-25.235C348.243,138.542,350.279,136.506,352.769,136.506z"/>
						<path opacity="0.74" fill="#6D6CD4" d="M352.769,136.506h82.375c2.489,0,4.524,2.036,4.524,4.525v25.235
							c0,2.488-2.035,4.524-4.524,4.524h-82.375c-2.489,0-4.525-2.036-4.525-4.524v-25.235
							C348.243,138.542,350.279,136.506,352.769,136.506z"/>
					</g>
					<g>
						<g>
							<path fill="#FFFFFF" d="M410.646,157.664c-2.19,0-3.972-1.782-3.972-3.972s1.781-3.972,3.972-3.972s3.972,1.782,3.972,3.972
								S412.837,157.664,410.646,157.664z M410.646,150.72c-1.639,0-2.972,1.333-2.972,2.972s1.333,2.972,2.972,2.972
								s2.972-1.333,2.972-2.972S412.285,150.72,410.646,150.72z"/>
							<path fill="#FFFFFF" d="M394.261,157.664c-2.19,0-3.972-1.782-3.972-3.972s1.781-3.972,3.972-3.972s3.972,1.782,3.972,3.972
								S396.451,157.664,394.261,157.664z M394.261,150.72c-1.639,0-2.972,1.333-2.972,2.972s1.333,2.972,2.972,2.972
								s2.972-1.333,2.972-2.972S395.899,150.72,394.261,150.72z"/>
							<path fill="#FFFFFF" d="M378.985,157.664c-2.19,0-3.972-1.782-3.972-3.972s1.781-3.972,3.972-3.972s3.972,1.782,3.972,3.972
								S381.176,157.664,378.985,157.664z M378.985,150.72c-1.639,0-2.972,1.333-2.972,2.972s1.333,2.972,2.972,2.972
								s2.972-1.333,2.972-2.972S380.624,150.72,378.985,150.72z"/>
						</g>
					</g>
				</g>
			</g>
		</g>
	</g>
	<g>
		<path fill="#FFFFFF" d="M152.376,94.795h127.642c2.571,0,4.655,2.084,4.655,4.655v188.003c0,8.869-7.189,16.06-16.059,16.06
			h-88.627c-18.899,0-34.219-15.321-34.219-34.22V101.403C145.769,97.754,148.728,94.795,152.376,94.795z"/>
		<path opacity="0.39" fill="#6D6CD4" d="M147.394,94.795h134.784c1.379,0,2.496,1.117,2.496,2.496v190.911
			c0,8.456-6.855,15.312-15.312,15.312h-92.416c-17.219,0-31.177-13.959-31.177-31.178V96.42
			C145.769,95.523,146.496,94.795,147.394,94.795z"/>
		<path opacity="0.39" fill="#3E479B" d="M159.209,94.795H282.7c1.09,0,1.974,0.884,1.974,1.974v191.956
			c0,8.167-6.621,14.789-14.789,14.789h-81.122c-16.931,0-30.655-13.726-30.655-30.656V95.898
			C158.107,95.289,158.601,94.795,159.209,94.795z"/>
		<g>
			<path fill="#6161B5" d="M177.491,303.479v0.035H289.06c12.841,0,23.251-10.41,23.251-23.251v-8.832H199.48v8.832
				C199.48,292.68,189.746,302.822,177.491,303.479z"/>
		</g>
		<g opacity="0.28">
			<path fill="#3E479B" d="M192.283,303.479v0.035h99.328c11.433,0,20.7-10.41,20.7-23.251v-8.832H211.859v8.832
				C211.859,292.68,203.192,302.822,192.283,303.479z"/>
		</g>
		<g>
			<path fill="#FFFFFF" d="M263.591,247.373h-80.219c-0.552,0-1-0.448-1-1s0.448-1,1-1h80.219c0.553,0,1,0.448,1,1
				S264.144,247.373,263.591,247.373z"/>
			<path fill="#FFFFFF" d="M265.273,213.597h-83.401c-0.552,0-1-0.448-1-1s0.448-1,1-1h83.401c0.553,0,1,0.448,1,1
				S265.826,213.597,265.273,213.597z"/>
			<path fill="#FFFFFF" d="M223.481,230.471h-42.616c-0.552,0-1-0.448-1-1s0.448-1,1-1h42.616c0.552,0,1,0.448,1,1
				S224.033,230.471,223.481,230.471z"/>
			<path fill="#FFFFFF" d="M220.252,230.471h-36.159c-0.552,0-1-0.448-1-1s0.448-1,1-1h36.159c0.552,0,1,0.448,1,1
				S220.805,230.471,220.252,230.471z"/>
			<path fill="#FFFFFF" d="M237.353,177.483h-54.901c-0.552,0-1-0.448-1-1s0.448-1,1-1h54.901c0.552,0,1,0.448,1,1
				S237.905,177.483,237.353,177.483z"/>
			<path fill="#FFFFFF" d="M262.805,177.483h-16.724c-0.552,0-1-0.448-1-1s0.448-1,1-1h16.724c0.553,0,1,0.448,1,1
				S263.357,177.483,262.805,177.483z"/>
			<path fill="#FFFFFF" d="M265.273,194.357h-59.45c-0.552,0-1-0.448-1-1s0.448-1,1-1h59.45c0.553,0,1,0.448,1,1
				S265.826,194.357,265.273,194.357z"/>
			<path fill="#FFFFFF" d="M199.952,194.357h-18.08c-0.552,0-1-0.448-1-1s0.448-1,1-1h18.08c0.552,0,1,0.448,1,1
				S200.504,194.357,199.952,194.357z"/>
			<path fill="#FFFFFF" d="M263.591,163.196h-80.219c-0.552,0-1-0.448-1-1s0.448-1,1-1h80.219c0.553,0,1,0.448,1,1
				S264.144,163.196,263.591,163.196z"/>
			<path fill="#FFFFFF" d="M263.591,129.42h-80.219c-0.552,0-1-0.448-1-1s0.448-1,1-1h80.219c0.553,0,1,0.448,1,1
				S264.144,129.42,263.591,129.42z"/>
			<path fill="#FFFFFF" d="M212.813,146.294h-30.361c-0.552,0-1-0.448-1-1s0.448-1,1-1h30.361c0.552,0,1,0.448,1,1
				S213.366,146.294,212.813,146.294z"/>
			<path fill="#FFFFFF" d="M262.98,146.294h-36.159c-0.552,0-1-0.448-1-1s0.448-1,1-1h36.159c0.553,0,1,0.448,1,1
				S263.533,146.294,262.98,146.294z"/>
		</g>
	</g>
	<g>
		<g>
			<g>
				<circle opacity="0.21" fill="#FFFFFF" cx="326.097" cy="218.395" r="63.292"/>
			</g>
			<g>
				<path opacity="0.76" fill="#FFFFFF" d="M276.499,222.943c-2.209,0-4-1.791-4-4c0-31.929,25.976-57.904,57.904-57.904
					c2.209,0,4,1.791,4,4s-1.791,4-4,4c-27.518,0-49.904,22.387-49.904,49.904C280.499,221.152,278.708,222.943,276.499,222.943z"/>
			</g>
			<path opacity="0.58" fill="#3E479B" d="M326.097,283.687c-36.002,0-65.292-29.29-65.292-65.292s29.29-65.292,65.292-65.292
				s65.292,29.29,65.292,65.292S362.099,283.687,326.097,283.687z M326.097,157.103c-33.797,0-61.292,27.496-61.292,61.292
				c0,33.797,27.495,61.292,61.292,61.292s61.292-27.495,61.292-61.292C387.389,184.598,359.894,157.103,326.097,157.103z"/>
			<g>
				<g>
					<circle fill="none" cx="326.097" cy="218.395" r="63.292"/>
					<g>
						<path fill="#3E479B" d="M384.271,263.743c0.093-0.094,0.197-0.168,0.3-0.245c9.639-12.478,15.384-28.116,15.384-45.103
							c0-40.791-33.067-73.858-73.858-73.858s-73.858,33.067-73.858,73.858c0,40.791,33.067,73.858,73.858,73.858
							c16.916,0,32.487-5.708,44.939-15.274l8.544-8.545L384.271,263.743z M326.097,281.687c-34.955,0-63.292-28.337-63.292-63.292
							c0-34.956,28.337-63.292,63.292-63.292s63.292,28.336,63.292,63.292C389.389,253.35,361.052,281.687,326.097,281.687z"/>
						<path fill="#3E479B" d="M326.097,293.253c-41.277,0-74.858-33.581-74.858-74.858c0-41.277,33.581-74.858,74.858-74.858
							s74.858,33.582,74.858,74.858c0,16.702-5.392,32.51-15.593,45.715l-0.188,0.186c-0.099,0.074-0.15,0.108-0.194,0.153
							l-13.335,13.322C358.463,287.899,342.712,293.253,326.097,293.253z M326.097,145.536c-40.174,0-72.858,32.684-72.858,72.858
							c0,40.175,32.685,72.858,72.858,72.858c16.149,0,31.459-5.196,44.278-15.028l13.189-13.188
							c0.094-0.095,0.194-0.177,0.297-0.255c9.875-12.831,15.094-28.176,15.094-44.387
							C398.955,178.22,366.271,145.536,326.097,145.536z M326.097,282.687c-35.451,0-64.292-28.841-64.292-64.292
							c0-35.451,28.841-64.292,64.292-64.292s64.292,28.841,64.292,64.292C390.389,253.846,361.548,282.687,326.097,282.687z
							 M326.097,156.103c-34.348,0-62.292,27.944-62.292,62.292c0,34.349,27.944,62.292,62.292,62.292s62.292-27.943,62.292-62.292
							C388.389,184.046,360.444,156.103,326.097,156.103z"/>
					</g>
					<path fill="#4C65BA" d="M382.445,275.291l-2.865-2.864c-1.103-1.103-1.103-2.891,0-3.993l-8.544,8.545l-0.14,0.139
						c-1.103,1.103-1.103,2.891,0,3.993l3.477,3.477C375.521,282.665,378.874,278.902,382.445,275.291z"/>
					<path fill="#4C65BA" d="M379.58,268.434c-1.103,1.103-1.103,2.891,0,3.993l2.865,2.864c3.455-3.494,7.102-6.832,9.147-8.219
						l-3.329-3.329c-1.009-1.01-2.586-1.084-3.692-0.245c-0.103,0.077-0.207,0.151-0.3,0.245L379.58,268.434z"/>
					<path opacity="0.43" fill="#3E479B" d="M379.58,268.434c-1.103,1.103-1.103,2.891,0,3.993l2.865,2.864
						c3.455-3.494,7.102-6.832,9.147-8.219l-3.329-3.329c-1.009-1.01-2.586-1.084-3.692-0.245c-0.103,0.077-0.207,0.151-0.3,0.245
						L379.58,268.434z"/>
					<path fill="#599AF2" d="M445.18,319.032l-52.012-52.577c-0.188-0.189-0.757,0.062-1.575,0.617
						c-2.046,1.387-5.692,4.725-9.147,8.219c-3.571,3.611-6.925,7.374-8.072,9.296c-0.373,0.626-0.518,1.06-0.354,1.225
						l52.012,52.578c5.287,5.346,13.86,5.346,19.148,0C450.467,333.044,450.467,324.378,445.18,319.032z"/>
				</g>
				<g>
					<g>
						<path opacity="0.14" fill="#3E479B" d="M445.18,319.032l-52.012-52.577c-0.7-0.708-6.627,4.602-11.716,9.849
							c-4.33,4.464,58.439,67.432,63.728,62.086l0,0C450.467,333.044,450.467,324.378,445.18,319.032z"/>
					</g>
				</g>
			</g>
		</g>
	</g>
	<g>
		<path fill="#F28393" d="M255.558,291.122h-85.1c-5.956,0-10.784-4.828-10.784-10.784v-7.072c0-5.977-4.846-10.822-10.823-10.822
			h-39.306c-5.978,0-10.823,4.846-10.823,10.822v27.938v32.117v52.278c0,5.567,4.513,10.081,10.081,10.081h146.755
			c5.567,0,10.08-4.514,10.08-10.081v-84.396C265.638,295.636,261.125,291.122,255.558,291.122z"/>
		<path fill="#F28393" d="M246.18,291.122h-85.1c-5.956,0-10.784-4.828-10.784-10.784v-7.072c0-5.977-4.846-10.822-10.823-10.822
			h-39.307c-5.978,0-10.823,4.846-10.823,10.822v27.938v32.117v52.278c0,5.567,4.513,10.081,10.081,10.081H246.18
			c5.567,0,10.081-4.514,10.081-10.081v-84.396C256.261,295.636,251.747,291.122,246.18,291.122z"/>
		<path opacity="0.12" fill="#FFFFFF" d="M246.18,291.122h-85.1c-5.956,0-10.784-4.828-10.784-10.784v-7.072
			c0-5.977-4.846-10.822-10.823-10.822h-39.307c-5.978,0-10.823,4.846-10.823,10.822v27.938v32.117v52.278
			c0,5.567,4.513,10.081,10.081,10.081H246.18c5.567,0,10.081-4.514,10.081-10.081v-84.396
			C256.261,295.636,251.747,291.122,246.18,291.122z"/>
		<path opacity="0.12" fill="#FFFFFF" d="M224.595,291.122h-73.387c-5.136,0-9.3-4.828-9.3-10.784v-7.072
			c0-5.977-4.179-10.822-9.333-10.822H98.678c-5.155,0-9.333,4.846-9.333,10.822v27.938v32.117v52.278
			c0,5.567,3.892,10.081,8.693,10.081h126.558c4.801,0,8.693-4.514,8.693-10.081v-84.396
			C233.289,295.636,229.396,291.122,224.595,291.122z"/>
		<path fill="#FFFFFF" d="M97.208,302.354c-0.552,0-1-0.447-1-1v-24.539c0-3.801,3.092-6.893,6.892-6.893h28.965
			c0.552,0,1,0.447,1,1s-0.448,1-1,1H103.1c-2.697,0-4.892,2.194-4.892,4.893v24.539C98.208,301.906,97.76,302.354,97.208,302.354z"
			/>
	</g>
</g>
<g id="DESIGNED_BY_FREEPIK">
</g>
</svg>
